<?xml version="1.0" encoding="utf-8"?>
<!-- Generator: Adobe Illustrator 26.3.1, SVG Export Plug-In . SVG Version: 6.00 Build 0)  -->
<svg version="1.1" id="Layer_1" xmlns="http://www.w3.org/2000/svg" xmlns:xlink="http://www.w3.org/1999/xlink" x="0px" y="0px"
	 viewBox="0 0 408.6 122.8" enable-background="new 0 0 408.6 122.8" xml:space="preserve">
<path id="libro_total" fill="#000000" d="M60,70.13V58.2v-0.07h7.93h7.17v5.64h-0.07h-4.4h-3.89v5.57h4.22h3.09h0.07v2.73v2.91
	h-0.07h-3.02h-4.29v5.16v0.73h5.75h2.77h0.07v5.64h-6.91H60v-0.07V73.77V70.13z M80.49,70.13V58.27v-0.15h3.49h3.24v0.15v11.88v3.64
	v6.89c0,0.12,0.05,0.18,0.15,0.18h5.42h1.6h1.09h0.15v5.64h-6.91h-8.22v-0.18V73.77V70.13z M110.25,70.13V58.27v-0.15h3.49h3.24
	v0.15v11.88v3.64v6.89c0,0.12,0.05,0.18,0.15,0.18h5.42h1.6h1.09h0.15v5.64h-6.91h-8.22v-0.18V73.77V70.13z M136.2,73.77v12.66v0.07
	h-3.22h-3.51V86.4V73.77v-3.64V58.27v-0.15h3.37h3.37v0.11v11.9V73.77z M160.47,78.54c0,0.7-0.1,1.38-0.31,2.02
	c-0.21,0.64-0.48,1.24-0.82,1.78c-0.34,0.55-0.73,1.04-1.18,1.47c-0.45,0.44-0.92,0.8-1.4,1.09c-0.49,0.29-1.01,0.55-1.58,0.77
	c-0.57,0.22-1.22,0.39-1.95,0.53c-0.73,0.13-1.55,0.24-2.47,0.31c-0.92,0.07-1.98,0.11-3.17,0.11c-0.56,0-1.06-0.01-1.49-0.02
	s-0.96-0.03-1.56-0.05c-0.19,0-0.5-0.02-0.91-0.06c-0.41-0.04-0.86-0.07-1.35-0.09v-0.07V73.77v-3.64V58.38v-0.11
	c0.31-0.05,0.69-0.09,1.11-0.11c0.42-0.02,0.88-0.05,1.36-0.07c0.53-0.05,1.17-0.07,1.91-0.07c0.74,0,1.45,0,2.13,0
	c0.85,0,1.73,0.06,2.66,0.18c0.92,0.12,1.76,0.29,2.51,0.51c0.44,0.12,0.96,0.33,1.56,0.62s1.19,0.7,1.75,1.24s1.04,1.22,1.44,2.06
	c0.4,0.84,0.6,1.87,0.6,3.11c0,1.29-0.36,2.49-1.07,3.6c-0.72,1.12-1.76,1.88-3.15,2.29v0.07c0.7,0.15,1.38,0.41,2.02,0.8
	c0.64,0.39,1.21,0.87,1.71,1.46c0.5,0.58,0.9,1.25,1.2,2.02c0.3,0.76,0.45,1.61,0.45,2.53V78.54z M152.83,66.35
	c0-0.9-0.28-1.58-0.84-2.06c-0.56-0.47-1.3-0.71-2.22-0.71c-0.17,0-0.38,0.01-0.64,0.02c-0.26,0.01-0.47,0.03-0.64,0.06v5.53
	c0.19,0.02,0.38,0.04,0.56,0.04c0.18,0,0.34,0,0.49,0c0.22,0,0.44-0.01,0.67-0.04c0.23-0.02,0.5-0.1,0.82-0.22
	c0.41-0.15,0.81-0.43,1.2-0.86c0.39-0.42,0.58-1,0.58-1.73V66.35z M153.63,77.63c0-0.75-0.22-1.37-0.65-1.86s-0.93-0.81-1.49-0.98
	c-0.27-0.07-0.56-0.13-0.87-0.18c-0.32-0.05-0.61-0.07-0.87-0.07c-0.12,0-0.32,0.01-0.58,0.02c-0.27,0.01-0.49,0.02-0.65,0.02v6.22
	c0,0.05,0.01,0.07,0.04,0.07c0.17,0.02,0.37,0.04,0.6,0.04c0.23,0,0.45,0,0.67,0c0.31,0,0.65-0.03,1-0.09
	c0.35-0.06,0.7-0.18,1.04-0.35c0.44-0.19,0.84-0.52,1.22-0.97c0.38-0.45,0.56-1.06,0.56-1.84V77.63z M165.31,70.13V58.31v-0.07
	c0.31-0.05,0.7-0.08,1.16-0.11c0.46-0.02,0.93-0.05,1.42-0.07c0.19,0,0.44-0.01,0.75-0.02c0.3-0.01,0.62-0.02,0.95-0.04
	c0.33-0.01,0.65-0.02,0.98-0.02s0.61,0,0.86,0c1.16,0,2.21,0.06,3.15,0.16s1.81,0.27,2.64,0.49c0.61,0.17,1.25,0.43,1.93,0.78
	c0.68,0.35,1.3,0.84,1.87,1.47c0.57,0.63,1.04,1.41,1.42,2.35c0.38,0.93,0.56,2.06,0.56,3.37c0,0.78-0.09,1.5-0.26,2.17
	c-0.17,0.67-0.38,1.27-0.64,1.8c-0.26,0.53-0.53,1-0.84,1.4c-0.3,0.4-0.6,0.71-0.89,0.93c-0.34,0.29-0.68,0.56-1.02,0.8
	c-0.34,0.24-0.63,0.41-0.87,0.51v0.11c0.07,0.1,0.18,0.25,0.31,0.45c0.13,0.21,0.41,0.62,0.82,1.24c0.41,0.62,1.01,1.5,1.78,2.66
	c0.78,1.15,1.84,2.72,3.2,4.71c0.19,0.29,0.4,0.6,0.62,0.93c0.22,0.33,0.43,0.64,0.64,0.93c0.21,0.29,0.38,0.55,0.53,0.76
	c0.15,0.22,0.24,0.36,0.29,0.44v0.07h-3.75h-2.69h-1.13c-1.02-1.65-2.11-3.41-3.27-5.28c-1.16-1.87-2.33-3.75-3.49-5.64h-0.65v1.78
	v9.06v0.07h-3.17h-3.2v-0.07V73.77V70.13z M176.48,67.13c0-1.11-0.32-1.97-0.95-2.59c-0.63-0.62-1.49-0.92-2.58-0.92
	c-0.32,0-0.56,0.01-0.75,0.02c-0.18,0.01-0.36,0.03-0.53,0.05v7.2c0.12,0.02,0.27,0.04,0.44,0.04c0.17,0,0.34,0,0.51,0
	c0.49,0,0.93-0.07,1.33-0.2c0.4-0.13,0.76-0.31,1.07-0.53c0.34-0.22,0.67-0.59,0.98-1.1c0.32-0.52,0.47-1.16,0.47-1.94V67.13z
	 M217.12,72.17c0,2.09-0.37,4.03-1.11,5.84c-0.74,1.81-1.78,3.37-3.11,4.69c-1.33,1.32-2.91,2.36-4.73,3.11
	c-1.82,0.75-3.8,1.13-5.93,1.13c-2.11,0-4.08-0.38-5.9-1.13c-1.82-0.75-3.4-1.78-4.73-3.09c-1.33-1.31-2.38-2.86-3.15-4.64
	c-0.76-1.78-1.15-3.69-1.15-5.73c0-2.04,0.38-3.95,1.15-5.73c0.77-1.78,1.83-3.33,3.18-4.64c1.36-1.31,2.97-2.34,4.82-3.09
	s3.86-1.13,6.02-1.13c2.13,0,4.09,0.36,5.88,1.09c1.78,0.73,3.32,1.74,4.62,3.04c1.3,1.3,2.31,2.82,3.04,4.57
	c0.73,1.75,1.09,3.64,1.09,5.68V72.17z M210.25,72.28c0-1.16-0.19-2.26-0.58-3.28c-0.39-1.02-0.93-1.9-1.64-2.64
	c-0.7-0.74-1.54-1.33-2.51-1.76s-2.03-0.65-3.17-0.65c-1.19,0-2.28,0.21-3.28,0.64c-0.99,0.42-1.86,1.01-2.58,1.75
	c-0.73,0.74-1.29,1.63-1.69,2.66c-0.4,1.03-0.6,2.15-0.6,3.37c0,1.19,0.2,2.29,0.6,3.31c0.4,1.02,0.96,1.91,1.67,2.66
	c0.72,0.75,1.57,1.35,2.57,1.78c0.99,0.44,2.1,0.65,3.31,0.65c1.19,0,2.27-0.22,3.26-0.65c0.98-0.44,1.81-1.04,2.49-1.8
	c0.68-0.76,1.21-1.66,1.58-2.67c0.38-1.02,0.56-2.12,0.56-3.31V72.28z M237.68,63.77h-4.88h-2.26h-0.18v-5.64h8.55h3.86h8.95v5.64
	h-0.15h-2.18h-4.99v9.99v12.68v0.07h-3.35h-3.38v-0.07V73.75V63.77z M282.77,72.17c0,2.09-0.37,4.03-1.11,5.84
	c-0.74,1.81-1.78,3.37-3.11,4.69c-1.33,1.32-2.91,2.36-4.73,3.11c-1.82,0.75-3.8,1.13-5.93,1.13c-2.11,0-4.08-0.38-5.9-1.13
	c-1.82-0.75-3.4-1.78-4.73-3.09c-1.33-1.31-2.38-2.86-3.15-4.64c-0.76-1.78-1.15-3.69-1.15-5.73c0-2.04,0.38-3.95,1.15-5.73
	c0.77-1.78,1.83-3.33,3.18-4.64c1.36-1.31,2.97-2.34,4.82-3.09c1.86-0.75,3.86-1.13,6.02-1.13c2.13,0,4.09,0.36,5.88,1.09
	c1.78,0.73,3.32,1.74,4.62,3.04c1.3,1.3,2.31,2.82,3.04,4.57c0.73,1.75,1.09,3.64,1.09,5.68V72.17z M275.89,72.28
	c0-1.16-0.19-2.26-0.58-3.28c-0.39-1.02-0.93-1.9-1.64-2.64c-0.7-0.74-1.54-1.33-2.51-1.76s-2.03-0.65-3.17-0.65
	c-1.19,0-2.28,0.21-3.28,0.64c-0.99,0.42-1.86,1.01-2.58,1.75c-0.73,0.74-1.29,1.63-1.69,2.66c-0.4,1.03-0.6,2.15-0.6,3.37
	c0,1.19,0.2,2.29,0.6,3.31c0.4,1.02,0.96,1.91,1.67,2.66c0.72,0.75,1.57,1.35,2.57,1.78c0.99,0.44,2.1,0.65,3.31,0.65
	c1.19,0,2.27-0.22,3.26-0.65s1.81-1.04,2.49-1.8c0.68-0.76,1.21-1.66,1.58-2.67c0.38-1.02,0.56-2.12,0.56-3.31V72.28z M292.23,63.77
	h-4.88h-2.26h-0.18v-5.64h8.55h3.86h8.95v5.64h-0.15h-2.18h-4.99v9.99v12.68v0.07h-3.35h-3.38v-0.07V73.75V63.77z M312.24,82.43
	c-0.44,1.07-0.81,1.96-1.11,2.69c-0.3,0.73-0.48,1.15-0.53,1.27v0.11h-3.35h-3.57V86.4c0.02-0.07,0.11-0.26,0.25-0.56
	c0.15-0.3,0.42-0.9,0.82-1.8c0.4-0.9,0.96-2.16,1.67-3.8c0.72-1.64,1.68-3.8,2.89-6.49l7.13-16.12h0.95l7.06,16.12
	c1.19,2.69,2.14,4.86,2.86,6.49c0.72,1.64,1.27,2.9,1.66,3.8c0.39,0.9,0.65,1.5,0.78,1.8c0.13,0.3,0.21,0.49,0.24,0.56v0.11h-3.49
	h-4.08V86.4c-0.05-0.12-0.22-0.55-0.51-1.27c-0.29-0.73-0.64-1.63-1.06-2.69H312.24z M318.9,77.05v-0.07
	c-0.36-0.92-0.67-1.72-0.93-2.4c-0.25-0.68-0.47-1.27-0.65-1.76c-0.18-0.5-0.32-0.92-0.42-1.26c-0.1-0.34-0.18-0.63-0.26-0.87h-0.04
	c-0.07,0.24-0.16,0.53-0.27,0.87c-0.11,0.34-0.26,0.76-0.44,1.26s-0.41,1.09-0.67,1.76c-0.27,0.68-0.58,1.48-0.95,2.4v0.07H318.9z
	 M333.31,70.13V58.27v-0.15h3.49h3.24v0.15v11.88v3.64v6.89c0,0.12,0.05,0.18,0.15,0.18h5.42h1.6h1.09h0.15v5.64h-6.91h-8.22v-0.18
	V73.77V70.13z"/>
<path id="prisma" fill="#000000" stroke="#000000" stroke-width="0.5" d="M160,101.66h-7.48l-0.47,0.47v19.66l0.47,0.47h0.61
	l0.47-0.47v-7.78h6.34c4.61,0,6.24-3.35,6.24-6.22C166.19,104.07,163.76,101.66,160,101.66z M159.95,112.52
	C159.95,112.52,159.95,112.52,159.95,112.52h-6.35v-9.4h6.4c3.38,0,4.59,2.41,4.59,4.67c0,1.52-0.43,2.74-1.25,3.55
	C162.56,112.13,161.44,112.52,159.95,112.52z M185.65,121.37l-6.62-7.83h0.65c3.77,0,6.02-2.22,6.02-5.94
	c0-3.61-2.41-5.94-6.13-5.94h-7.62l-0.47,0.47v19.66l0.47,0.47h0.61l0.47-0.47v-8.25h4l7.22,8.56l0.35,0.16h0.69l0.47-0.47
	L185.65,121.37z M173.03,103.15h6.54c2.81,0,4.56,1.72,4.56,4.48c0,2.87-1.57,4.45-4.42,4.45h-6.68V103.15z M192.6,102.14v19.63
	l-0.47,0.47h-0.61l-0.47-0.47v-19.63l0.47-0.47h0.61L192.6,102.14z M213.22,117.1c-0.15,1.81-1.1,3.28-2.74,4.25
	c-1.3,0.77-2.97,1.2-4.72,1.2l-0.1,0c-3.03-0.03-7.61-1.65-7.77-6l0.46-0.56h0.59l0.47,0.45c0.09,2.22,2.08,4.55,6.27,4.59l0.22,0
	c3.99,0,5.61-2.2,5.78-4.08c0.29-3.31-1.88-4.14-5.97-4.51c-3.17-0.29-7.39-0.66-7.39-5.35c0-4.22,3.83-5.72,7.11-5.72
	c1.29,0,3.16,0.19,4.72,1.11c1.6,0.94,2.47,2.37,2.58,4.27l-0.46,0.57h-0.61l-0.46-0.44c-0.06-0.99-0.66-4.02-5.76-4.02
	c-2.77,0-5.56,1.31-5.56,4.23c0,3.08,2.17,3.49,5.74,3.81l0.32,0.03C209.68,111.29,213.66,112.1,213.22,117.1z M236.22,102.13v19.66
	l-0.47,0.47h-0.61l-0.47-0.47v-17.11l-6.66,10.81l-0.4,0.22h-0.47l-0.4-0.22l-6.66-10.81v17.11l-0.47,0.47h-0.61l-0.47-0.47v-19.66
	l0.47-0.47h0.78l0.4,0.22l7.19,11.76l7.17-11.76l0.4-0.22h0.81L236.22,102.13z M251.15,101.94l-0.43,0.18l0,0l0.42-0.22l-0.43-0.29
	h-0.6l-0.43,0.29l-8.16,19.77l0.43,0.64h0.68l0.43-0.29l2.28-5.59h10.11l2.28,5.59l0.43,0.29h0.71l0.43-0.64L251.15,101.94z
	 M245.97,114.95l4.44-10.91l4.44,10.91H245.97z"/>
<linearGradient id="left_00000049941807977699229020000013876607371434617010_" gradientUnits="userSpaceOnUse" x1="59.8819" y1="113.8542" x2="133.9074" y2="113.8542">
	<stop  offset="0" style="stop-color:#00A8DE"/>
	<stop  offset="0.2" style="stop-color:#333391"/>
	<stop  offset="0.4" style="stop-color:#E91388"/>
	<stop  offset="0.6" style="stop-color:#EB2D2E"/>
	<stop  offset="0.8" style="stop-color:#FDE92B"/>
	<stop  offset="1" style="stop-color:#009E54"/>
</linearGradient>
<rect id="left" x="59.88" y="111.21" fill="url(#left_00000049941807977699229020000013876607371434617010_)" width="74.03" height="5.29"/>
<linearGradient id="rigth_00000178925130360256320990000004307518985382004871_" gradientUnits="userSpaceOnUse" x1="275.5377" y1="113.8542" x2="348.7181" y2="113.8542">
	<stop  offset="0" style="stop-color:#009E54"/>
	<stop  offset="0.2" style="stop-color:#FDE92B"/>
	<stop  offset="0.4" style="stop-color:#EB2D2E"/>
	<stop  offset="0.6" style="stop-color:#E91388"/>
	<stop  offset="0.8" style="stop-color:#333391"/>
	<stop  offset="1" style="stop-color:#00A8DE"/>
</linearGradient>
<rect id="rigth" x="275.54" y="111.21" fill="url(#rigth_00000178925130360256320990000004307518985382004871_)" width="73.18" height="5.29"/>
<path id="iconLibroTotal_00000165221680016786042090000007864789329029283511_" fill-rule="evenodd" clip-rule="evenodd" fill="#000000" d="
	M255.22,10.53c-9.63,8.17-41.08,21.93-47.99,41.02c-0.15,0.87-2.73,1.39-5.26,1.27c-1.78-0.08-3.53-0.47-4.4-1.28
	c-6.28-19.31-36.94-32.88-46.3-41.35c0.73-0.81-0.03,0.03,0.7-0.78c13.52,9.78,35.45,18.03,46.02,34.64
	c-6.92-21.85-42.46-23.87-43.34-37.91c2.07-2.32-0.08,0.09,1.99-2.23c0.41,1.27,0.95,2.42,1.6,3.48c-0.23-1.12-0.24-2.18-0.07-3.18
	c0.12-0.7,0.32-1.38,0.59-2.05c0.27-0.68,0.6-1.31,0.98-1.91l0,0l-0.01,0.03l-0.06,0.55l0,0l0,0c-0.27,0.43-0.5,0.87-0.68,1.31
	c-0.18,0.45-0.32,0.95-0.41,1.47c-0.29,1.72-0.02,3.63,1.07,5.73c0.27,0.33,0.56,0.65,0.86,0.96c-1.19-2.09-1.48-4.01-1.19-5.74
	c0.1-0.62,0.28-1.23,0.52-1.83c0.24-0.61,0.54-1.17,0.87-1.7l0,0l0,0l0,0.03l-0.05,0.49l0,0l0,0c-0.24,0.38-0.45,0.77-0.61,1.17
	c-0.16,0.4-0.29,0.84-0.37,1.31c-0.41,2.43,0.43,5.32,3.5,8.58c10.89,7.98,30.7,8.55,38.79,20.94c0.18,0.27,0.35,0.54,0.51,0.83
	c7.15-13.52,26.72-13.78,38.77-20.58c3.76-3.13,5.1-6.19,5.05-8.97c-0.01-0.56-0.08-1.09-0.2-1.59c-0.12-0.49-0.29-0.98-0.51-1.46
	l0,0l0,0l0.02-0.58l0-0.03l0,0c0.3,0.67,0.55,1.38,0.72,2.12c0.18,0.74,0.28,1.48,0.3,2.21c0.04,1.94-0.56,4-2.1,6.1
	c0.41-0.32,0.8-0.66,1.18-1.01c1.42-2.11,1.98-4.15,1.94-6.07c-0.01-0.63-0.09-1.22-0.23-1.78c-0.13-0.55-0.33-1.1-0.57-1.64l0,0
	l0,0l0.02-0.65l0-0.03l0,0l0,0c0.34,0.75,0.61,1.55,0.81,2.38c0.2,0.83,0.31,1.65,0.33,2.48c0.02,1.1-0.14,2.23-0.52,3.38
	c1.07-1.34,1.94-2.86,2.56-4.6c2,2.39-0.08-0.1,1.92,2.29c-1.34,14.08-37.3,14.88-44.66,36.83c11.33-16.02,33.57-24.25,47.24-33.48
	C255.24,10.56,254.52,9.7,255.22,10.53z M201.96,20.33L201.96,20.33c5.25,0,9.52-4.26,9.52-9.52s-4.26-9.52-9.52-9.52h0
	c-5.25,0-9.52,4.26-9.52,9.52C192.45,16.06,196.71,20.33,201.96,20.33z"/>
</svg>
